<?xml version="1.0" standalone="no"?><!DOCTYPE svg PUBLIC "-//W3C//DTD SVG 1.1//EN" "http://www.w3.org/Graphics/SVG/1.1/DTD/svg11.dtd"><svg t="1560824204921" class="icon" style="" viewBox="0 0 1024 1024" version="1.1" xmlns="http://www.w3.org/2000/svg" p-id="5275" xmlns:xlink="http://www.w3.org/1999/xlink" width="200" height="200"><defs><style type="text/css"></style></defs><path d="M808.865221 389.730259c-107.359146 0-194.686051-87.338161-194.686051-194.686051 0-107.359146 87.326904-194.697307 194.686051-194.697307s194.686051 87.338161 194.686051 194.697307C1003.551272 302.392098 916.224368 389.730259 808.865221 389.730259zM808.865221 37.889959c-86.639243 0-157.142993 70.50375-157.142993 157.154249s70.50375 157.142993 157.142993 157.142993 157.142993-70.491471 157.142993-157.142993S895.504464 37.889959 808.865221 37.889959z" p-id="5276" fill="#707070"></path><path d="M215.133755 707.854667c-107.359146 0-194.686051-87.338161-194.686051-194.686051 0-107.359146 87.326904-194.697307 194.686051-194.697307s194.686051 87.338161 194.686051 194.697307C409.820829 620.516506 322.493925 707.854667 215.133755 707.854667zM215.133755 356.014366c-86.639243 0-157.142993 70.50375-157.142993 157.154249s70.50375 157.142993 157.142993 157.142993 157.142993-70.491471 157.142993-157.142993S301.772998 356.014366 215.133755 356.014366z" p-id="5277" fill="#707070"></path><path d="M808.865221 1023.653099c-107.359146 0-194.686051-87.338161-194.686051-194.686051s87.326904-194.686051 194.686051-194.686051 194.686051 87.338161 194.686051 194.686051S916.224368 1023.653099 808.865221 1023.653099zM808.865221 671.824055c-86.639243 0-157.142993 70.491471-157.142993 157.142993s70.50375 157.142993 157.142993 157.142993 157.142993-70.491471 157.142993-157.142993S895.504464 671.824055 808.865221 671.824055z" p-id="5278" fill="#707070"></path><path d="M369.664248 447.77628c-6.762007 0-13.293771-3.656273-16.639982-10.050913-4.836145-9.18008-1.306762-20.536732 7.884574-25.350364l277.154297-145.613402c9.259898-4.836145 20.559245-1.283226 25.350364 7.884574 4.836145 9.18008 1.306762 20.536732-7.884574 25.350364L378.373607 445.610964C375.576911 447.077362 372.598067 447.77628 369.664248 447.77628z" p-id="5279" fill="#707070"></path><path d="M641.064494 794.72313c-3.070942 0-6.188956-0.756223-9.05319-2.349511L346.857822 634.819257c-9.076726-5.019317-12.376888-16.434298-7.357572-25.51 4.996804-9.076726 16.45681-12.365632 25.51-7.357572l285.153482 157.555385c9.076726 5.019317 12.376888 16.434298 7.357572 25.51C654.106532 791.216259 647.688355 794.72313 641.064494 794.72313z" p-id="5280" fill="#707070"></path></svg>